<svg xmlns="http://www.w3.org/2000/svg" width="24" height="27" viewBox="0 0 24 27">
    <g fill="none" fill-rule="evenodd">
        <path stroke="#17A2B8" stroke-width="1.083" d="M12.68 19.839v1.19l-11.943.016L.729 1.513l11.995-.017-.023 12.2M9.536 21.033c-.002-1.336.896-2.48 2.091-2.949M12.671 4.835c-1.772-.031-3.274-1.46-3.274-3.326M3.897 1.509C3.933 3.147 2.526 4.657.754 4.627M.773 17.875c1.782-.003 3.228 1.414 3.23 3.165"/>
        <path stroke="#17A2B8" stroke-width="1.083" d="M12.724 8.966c.679.476 1.477 1.356 1.94 2.48.772 1.877.623 3.926-1.815 2.69l-1.413-4.105c-.552-1.668-3.028-.804-2.49.823 1.705 5.159 2.084 7.475 5.753 11.32M16.017 26.293l-2.349-3.406 6.375-4.396 2.348 3.406zM12.724 5.575c1.45.606 5.934 2.926 5.895 7.957-.046 5.971.313 5.723.313 5.723"/>
        <path stroke="#17A2B8" stroke-width="1.083" d="M8.88 10.21c-.237-.215-.497-.342-.822-.342-.768 0-1.147.759-1.39 1.588-.269.86-.621 1.59-1.389 1.59-.767 0-1.389-.712-1.389-1.59 0-.59.282-1.106.7-1.38M3.258 11.456h5.887"/>
        <path d="M-2 1h26v26H-2z"/>
    </g>
</svg>
