<svg xmlns="http://www.w3.org/2000/svg" width="26" height="26" viewBox="0 0 26 26">
    <g fill="none" fill-rule="evenodd">
        <g stroke="#17A2B8" stroke-width="1.083">
            <path d="M.542 7.042h24.917v18.417H.542zM12.035 3.032l-4.38 3.897M14.077 2.937l4.268 3.992"/>
            <circle cx="13" cy="2.057" r="1.378"/>
            <path d="M.542 10.292h24.916M4.937 22.154h1.012M8.232 22.154h1.013M11.412 22.154h1.013M14.663 22.154h1.013M4.937 19.987h1.012M8.232 19.987h1.013M11.412 19.987h1.013M14.663 19.987h1.013M17.913 19.987h1.013M21.163 19.987h1.013M4.937 17.82h1.012M8.232 17.82h1.013M11.412 17.82h1.013M14.663 17.82h1.013M17.913 17.82h1.013M21.163 17.82h1.013M4.937 15.654h1.012M8.232 15.654h1.013M11.412 15.654h1.013M14.663 15.654h1.013M17.913 15.654h1.013M21.163 15.654h1.013M14.663 13.487h1.013M17.913 13.487h1.013M21.163 13.487h1.013"/>
        </g>
        <path d="M0 0h26v26H0z"/>
    </g>
</svg>
