<svg xmlns="http://www.w3.org/2000/svg" width="25" height="26" viewBox="0 0 25 15">
    <g fill="none" fill-rule="evenodd">
        <g stroke="#17A2B8">
            <path d="M16.99 10.664l-2.228-1.87M14.943 11.798l-1.816-1.486M5.03 7.871c.645 1.858 5.849 5.879 5.849 5.879 1.255 1.062 2.39-.56 1.357-1.432l-.79-.768"/>
            <path d="M11.445 11.55l2.152 1.868c1.238 1.048 2.446-.661 1.423-1.527l.543.46c1.082.915 2.506-.774 1.427-1.687l.084.071c1.082.916 2.506-.773 1.427-1.686l-5.327-4.344s-1.028.394-1.425.28c0 0-1.534 2.353-2.655 1.535-1.121-.817 0-4.298 3.152-4.795 0 0 1.418-.405 4.893 1.386l1.288-.39M4.427 9.998L.651 8.928l2.214-7.817 3.776 1.07zM18.411 2.389l3.776-1.07 2.214 7.819-3.775 1.069zM6.492 2.707s.183-.332 4.187-.42M18.844 9.604s.993.257 1.514-.338"/>
        </g>
        <path d="M.038-4.963h24.96v24.96H.038z"/>
    </g>
</svg>
