<svg xmlns="http://www.w3.org/2000/svg" width="25" height="25" viewBox="0 0 25 25">
    <g fill="none" fill-rule="evenodd">
        <g stroke="#17A2B8" stroke-width="1.04" transform="translate(.04)">
            <path d="M21.306 24.363v-8.627M22.713 3.089c0 .792-.63 1.898-1.407 1.898S19.9 3.88 19.9 3.089c0-.792.63-1.434 1.406-1.434.777 0 1.407.642 1.407 1.434zM23.127 24.363l.556-10.2c.008-.207.657.061.665-.134.264-7.215-.324-7.674-.39-7.73-.08-.023-.721-.04-.913-.053-.26-.016-.484.145-.604.381-.423.837-1.847.837-2.27 0-.12-.236-.343-.397-.603-.38-.163.01-4.622.743-6.026.98-.58.098-.545.96.038 1.014l5.35.499v5.422l.556 10.201M9.866 1.56V.54M16.106 1.56V.54"/>
            <path d="M16.626 19.24H.506V1.56h17.16"/>
            <circle cx="4.098" cy="10.349" r="1.017"/>
            <circle cx="9.312" cy="6.752" r="1.017"/>
            <circle cx="13.62" cy="14.882" r="1.017"/>
            <path d="M8.295 7.323l-3.34 2.481M9.864 7.605l3.204 6.424M12.986 21.45v2.99M9.346 24.44h6.24"/>
        </g>
        <path d="M.026 0h24.96v24.96H.026z"/>
    </g>
</svg>
