<svg xmlns="http://www.w3.org/2000/svg" width="42" height="25" viewBox="0 0 42 25">
    <g fill="none" fill-rule="evenodd">
        <path d="M0-9h42v42H0z"/>
        <g stroke="#FFF" stroke-linecap="round" stroke-linejoin="round" stroke-width="2">
            <path d="M28.521 17.29l-3.748-3.147M25.077 19.199l-3.055-2.501M8.395 12.591c1.088 3.126 9.843 9.892 9.843 9.892 2.112 1.787 4.02-.94 2.285-2.41l-1.331-1.292"/>
            <path d="M19.192 18.781l3.62 3.144c2.083 1.763 4.115-1.113 2.394-2.57l.914.773c1.82 1.541 4.217-1.3 2.401-2.837l.141.119c1.821 1.541 4.218-1.301 2.402-2.838L22.1 7.264s-1.729.663-2.397.472c0 0-2.581 3.958-4.468 2.582-1.887-1.376 0-7.233 5.304-8.07 0 0 2.387-.68 8.233 2.333l2.167-.657M7.382 16.17l-6.353-1.8L4.754 1.216l6.354 1.8zM30.913 3.366l6.354-1.8 3.725 13.156-6.353 1.8zM10.856 3.764s.308-.45 7.046-.568M31.642 15.368s1.67.327 2.546-.43"/>
        </g>
    </g>
</svg>
