<svg xmlns="http://www.w3.org/2000/svg" width="23" height="26" viewBox="0 0 23 26">
    <g fill="none" fill-rule="evenodd">
        <path d="M-2 0h26v26H-2z"/>
        <g stroke="#17A2B8" stroke-linecap="round" stroke-linejoin="round" transform="translate(.708 .542)">
            <path d="M19.635 7.111l1.37-1.388a.303.303 0 0 0 .087-.16c.01-.056-.003-.106-.036-.139l-1.6-1.621c-.032-.034-.082-.046-.137-.037a.295.295 0 0 0-.158.087l-1.37 1.388c-.046.047 1.799 1.917 1.844 1.87zM15.138 9.789l-5.294 5.445"/>
            <ellipse cx="10.337" cy="14.812" rx="9.83" ry="9.962"/>
            <path d="M11.917 4.978V3.25H13V.542c0-.3-.243-.542-.542-.542H8.125c-.3 0-.542.243-.542.542V3.25h1.084v1.728"/>
        </g>
    </g>
</svg>
