<svg xmlns="http://www.w3.org/2000/svg" width="25" height="22" viewBox="0 0 25 22">
    <g fill="none" fill-rule="evenodd">
        <g stroke="#17A2B8" transform="translate(.04 .333)">
            <path d="M4.129 6.993H1.328a.626.626 0 0 0-.613.639v.785c0 .684.768.666 1.446.787-.263.536-.722 5.16-.722 5.16v5.656c0 .629.49 1.139 1.094 1.139h1.67c.604 0 1.094-.51 1.094-1.14v-2.122h14.355v2.123c0 .629.49 1.139 1.094 1.139h1.67c.604 0 1.094-.51 1.094-1.14v-5.654s-.46-4.628-.723-5.164c.668-.12 1.428-.099 1.428-.784v-.785a.626.626 0 0 0-.613-.64H20.82"/>
            <path d="M20.82 6.92c0 1.261-1.383 2.284-2.69 2.284H6.819c-1.306 0-2.69-1.023-2.69-2.284l1.08-4.148C5.432 1.607 6.267.488 7.573.488h9.803c1.306 0 2.142 1.087 2.365 2.284l1.08 4.148zM9.884 13.543h5.18M9.884 15.71h5.18"/>
            <ellipse cx="6.233" cy="14.118" rx="1.616" ry="1.683"/>
            <ellipse cx="18.716" cy="14.118" rx="1.616" ry="1.683"/>
            <path d="M11.128 2.654h2.7M23.51 17.897H1.44"/>
        </g>
        <path d="M.026-4h24.96v26H.026z"/>
    </g>
</svg>
